# Blender v2.79 (sub 0) OBJ File: ''
# www.blender.org
mtllib ship.mtl
o Cube.003
v -1.414142 0.014241 1.200524
v 0.014243 1.194151 -0.224745
v 0.014242 0.125729 -7.318307
v -1.405196 0.005113 1.200524
v 1.405197 -0.005115 1.200524
v 0.995299 0.096610 -0.052958
v 0.855415 0.335173 0.748515
v 4.412230 -1.678158 3.857238
v 0.149869 0.007252 0.987030
v 1.186352 0.007225 0.914167
v 0.618012 0.540928 0.130330
v 3.110834 2.973030 4.738565
v 0.570089 0.678926 0.703294
v -0.111895 0.050151 0.880016
v -0.840510 0.403991 0.683556
v -4.264569 -1.716239 3.869311
v -0.113877 0.046400 0.875903
v -1.012814 0.100298 -0.051493
v -0.566443 0.661868 0.673211
v -0.607916 0.511468 0.081006
v -3.189094 2.988549 4.721742
v -1.145453 0.064531 0.683765
vn 0.0053 0.7653 0.6437
vn 0.7089 0.6974 -0.1050
vn -0.6946 0.7114 -0.1072
vn -0.0069 -0.9999 -0.0142
vn -0.1338 0.7549 0.6420
vn 0.5770 0.8049 -0.1389
vn -0.2064 -0.9462 -0.2491
vn -0.4046 0.8808 -0.2460
vn 0.8424 0.1283 -0.5234
vn -0.6555 -0.4004 0.6403
vn 0.4877 0.7593 -0.4308
vn -0.6269 0.7609 -0.1674
vn 0.1720 0.7247 0.6672
vn 0.2147 -0.9419 -0.2583
vn -0.8020 0.2111 -0.5587
vn 0.3948 0.8835 -0.2520
vn 0.5487 -0.5203 0.6544
usemtl Material.001
s 1
f 5//1 2//1 1//1 4//1
f 2//2 5//2 3//2
f 2//3 3//3 1//3
f 3//4 5//4 1//4
f 7//5 9//5 8//5
f 7//6 8//6 6//6
f 8//7 9//7 6//7
f 11//8 13//8 12//8
f 11//9 12//9 10//9
f 12//10 13//10 10//10
f 18//11 15//11 14//11 17//11
f 15//12 18//12 16//12
f 15//13 16//13 14//13
f 16//14 18//14 14//14
f 20//15 22//15 21//15
f 20//16 21//16 19//16
f 21//17 22//17 19//17
